<svg xmlns="http://www.w3.org/2000/svg" width="184" height="184" viewBox="0 0 184 184">
  <g id="Grupo_577" data-name="Grupo 577" transform="translate(-875.001 -320)">
    <g id="Grupo_576" data-name="Grupo 576" transform="translate(877.001 322)">
      <path id="Trazado_4225" data-name="Trazado 4225" d="M191.206,153.053a83.664,83.664,0,1,1-83.664,83.664,83.666,83.666,0,0,1,83.664-83.664m0-6.336a90,90,0,1,1-90,90A90,90,0,0,1,191.206,146.717Z" transform="translate(-101.206 -146.717)" fill="#47b279" stroke="#47b279" stroke-width="4" fill-rule="evenodd"/>
      <path id="Trazado_4226" data-name="Trazado 4226" d="M123.909,175.629l23.877,23.88a4.479,4.479,0,1,1-6.336,6.333l-23.877-23.877a4.48,4.48,0,0,1,6.336-6.336" transform="translate(-68.532 -86.824)" fill="#47b279" stroke="#47b279" stroke-width="4" fill-rule="evenodd"/>
      <path id="Trazado_4227" data-name="Trazado 4227" d="M125.106,218.552l51.7-51.7a4.48,4.48,0,0,1,6.336,6.336l-51.7,51.7a4.48,4.48,0,1,1-6.336-6.336" transform="translate(-52.187 -105.869)" fill="#47b279" stroke="#47b279" stroke-width="4" fill-rule="evenodd"/>
    </g>
  </g>
</svg>
