<svg xmlns="http://www.w3.org/2000/svg" width="96.056" height="96" viewBox="0 0 96.056 96">
  <g id="Grupo_573" data-name="Grupo 573" transform="translate(-101.417 -146.465)">
    <path id="Trazado_4210" data-name="Trazado 4210" d="M110.117,177.839h-4V161.83a6,6,0,0,1,6-6h48.027v4H112.118a2,2,0,0,0-2,2Z" transform="translate(3.308 6.592)" fill="#fff"/>
    <path id="Trazado_4211" data-name="Trazado 4211" d="M132.13,204.153H112.118a6,6,0,0,1-6-6V178.137h4v20.012a2,2,0,0,0,2,2H132.13Z" transform="translate(3.308 22.303)" fill="#fff"/>
    <path id="Trazado_4212" data-name="Trazado 4212" d="M152.019,229.258a2.006,2.006,0,0,1-1.416-.586L102,180.07a2,2,0,0,1,0-2.829l11.435-11.435a2,2,0,0,1,2.829,0l48.6,48.6a2,2,0,0,1,0,2.829l-11.435,11.435a2,2,0,0,1-1.414.586m-45.771-50.6,45.771,45.771,8.6-8.6-45.771-45.771Z" transform="translate(0 13.207)" fill="#fff"/>
    <path id="Trazado_4213" data-name="Trazado 4213" d="M165.489,207.063h-6a2,2,0,0,1-2-2V195.057H135.471v-4h30.018a8,8,0,0,1,0,16.009m-4-4h4a4,4,0,1,0,0-8h-4Z" transform="translate(23.98 31.399)" fill="#fff"/>
    <path id="Trazado_4214" data-name="Trazado 4214" d="M165.224,223.866h-4V163.831a4,4,0,0,0-4-4H147.214v-4h10.005a8,8,0,0,1,8,8Z" transform="translate(32.249 6.592)" fill="#fff"/>
    <rect id="Rectángulo_2359" data-name="Rectángulo 2359" width="8.491" height="4.003" transform="translate(132.022 209.031) rotate(-45.003)" fill="#fff"/>
    <rect id="Rectángulo_2360" data-name="Rectángulo 2360" width="8.491" height="4.002" transform="translate(124.017 201.027) rotate(-45)" fill="#fff"/>
    <rect id="Rectángulo_2361" data-name="Rectángulo 2361" width="8.491" height="4.002" transform="translate(140.022 217.036) rotate(-45)" fill="#fff"/>
    <rect id="Rectángulo_2362" data-name="Rectángulo 2362" width="8.491" height="4.003" transform="translate(148.031 225.044) rotate(-45)" fill="#fff"/>
    <rect id="Rectángulo_2363" data-name="Rectángulo 2363" width="8.491" height="4.002" transform="matrix(0.707, -0.707, 0.707, 0.707, 116.007, 193.022)" fill="#fff"/>
    <path id="Trazado_4215" data-name="Trazado 4215" d="M137.638,190.286a1.982,1.982,0,0,1-1.414-.586l-8.3-8.3a2,2,0,0,1,0-2.829l30.43-30.432a6.046,6.046,0,0,1,4.177-1.675h.009a6.047,6.047,0,0,1,4.177,1.675l2.766,2.766a5.913,5.913,0,0,1,0,8.361l0,0-30.43,30.43a2,2,0,0,1-1.414.586m-5.469-10.3,5.469,5.469,29.017-29.017a1.911,1.911,0,0,0,0-2.7h0l-2.768-2.764a1.954,1.954,0,0,0-2.7,0Z" transform="translate(18.253)" fill="#fff"/>
    <path id="Trazado_4216" data-name="Trazado 4216" d="M126.9,180.846a2,2,0,0,1-2-2,2.047,2.047,0,0,1,.1-.632l4.151-12.449,3.8,1.266-2.883,8.65,8.637-2.883,1.266,3.8-12.449,4.15a1.986,1.986,0,0,1-.624.1" transform="translate(16.538 13.59)" fill="#fff"/>
    <rect id="Rectángulo_2364" data-name="Rectángulo 2364" width="4.002" height="11.737" transform="translate(171.073 156.502) rotate(-45.005)" fill="#fff"/>
    <rect id="Rectángulo_2365" data-name="Rectángulo 2365" width="30.018" height="4.002" transform="translate(143.442 190.434)" fill="#fff"/>
    <rect id="Rectángulo_2366" data-name="Rectángulo 2366" width="4.002" height="4.002" transform="translate(177.462 190.434)" fill="#fff"/>
    <rect id="Rectángulo_2367" data-name="Rectángulo 2367" width="4.002" height="4.002" transform="translate(185.466 190.434)" fill="#fff"/>
  </g>
</svg>
