<svg xmlns="http://www.w3.org/2000/svg" width="122.726" height="90" viewBox="0 0 122.726 90">
  <path id="Trazado_4205" data-name="Trazado 4205" d="M219.52,176.6h-6.136v-3.068a7.113,7.113,0,0,0-10.228-6.439v-2.765a8.182,8.182,0,0,0-16.364,0V176.6h-8.181v-2.045a6.11,6.11,0,0,0-10.228-4.54,6.043,6.043,0,0,0-8.181,0,6.043,6.043,0,0,0-8.181,0,6.11,6.11,0,0,0-10.228,4.54V176.6h-8.183V164.323a8.182,8.182,0,0,0-16.364,0v2.765a7.076,7.076,0,0,0-3.068-.718,7.157,7.157,0,0,0-7.158,7.158V176.6h-6.136a2.048,2.048,0,0,0-2.047,2.047v12.272a2.047,2.047,0,0,0,2.047,2.045h6.136v3.068a7.158,7.158,0,0,0,7.158,7.16,7.076,7.076,0,0,0,3.068-.718v2.763a8.182,8.182,0,1,0,16.364,0V192.959H137.7V199.8a10.158,10.158,0,0,0,3,7.231l5.185,5.187v33.927h4.091V211.37a2.042,2.042,0,0,0-.6-1.446l-5.785-5.787a6.172,6.172,0,0,1-1.8-4.339V186.823h11.979a2.459,2.459,0,0,1,1.981.96c.014.02.03.042.044.064a1.851,1.851,0,0,1,.205.447,2.181,2.181,0,0,1,.078.387,1.791,1.791,0,0,1,0,.387,1.752,1.752,0,0,1-.026.205,2.239,2.239,0,0,1-.235.612,2.019,2.019,0,0,1-1.753,1.029H147.93a2.047,2.047,0,0,0-2.047,2.045v4.091a2.045,2.045,0,0,0,1.4,1.941l4.5,1.5c3.653,1.213,6.372,6.741,6.372,10.874h4.091c0-5.628-3.5-12.871-9.16-14.756l-3.112-1.037v-.571h4.091a6.108,6.108,0,0,0,4.5-2.047h18v7.5a6.187,6.187,0,0,1-1.227,3.682l-4.5,6a2.04,2.04,0,0,0-.409,1.229v34.772h4.089V212.05l4.091-5.454a10.292,10.292,0,0,0,2.047-6.136v-7.5h6.134v12.272a8.182,8.182,0,1,0,16.364,0v-2.763a7.113,7.113,0,0,0,10.228-6.441v-3.068h6.136a2.045,2.045,0,0,0,2.045-2.045V178.642a2.047,2.047,0,0,0-2.045-2.047m-112.5,12.274H102.93v-8.183h4.091Zm10.226,7.158a3.068,3.068,0,0,1-6.136,0v-22.5a3.068,3.068,0,0,1,6.136,0Zm12.272,9.2a4.09,4.09,0,1,1-8.181,0V164.323a4.09,4.09,0,0,1,8.181,0Zm10.228-22.5a2.045,2.045,0,0,0-2.045,2.045v4.091h-4.091v-8.183h8.183a6.006,6.006,0,0,0,.116,1.151c.022.122.062.231.09.349.048.182.082.369.144.547Zm10.228-2.047a2.046,2.046,0,1,1-4.091,0v-6.136a2.046,2.046,0,0,1,4.091,0Zm8.181,0a2.045,2.045,0,1,1-4.089,0v-6.136a2.045,2.045,0,0,1,4.089,0Zm12.274-6.136a2.045,2.045,0,0,1,4.089,0v6.136a2.045,2.045,0,1,1-4.089,0Zm-8.183,0a2.046,2.046,0,0,1,4.091,0v6.136a2.046,2.046,0,1,1-4.091,0Zm24.545,14.319H160.2v-.058a6.012,6.012,0,0,0-.128-1.211c-.012-.056-.038-.106-.05-.164-.038-.15-.09-.289-.138-.433a5.821,5.821,0,0,0-.313-.766c-.06-.122-.088-.261-.156-.381.024-.016.046-.032.068-.05.094-.062.176-.136.265-.205.154-.114.315-.221.459-.349.118.106.255.19.383.285a4.692,4.692,0,0,0,.389.291,5.931,5.931,0,0,0,.6.325c.14.068.269.148.409.2a5.864,5.864,0,0,0,.732.227c.13.036.249.084.383.112a5.994,5.994,0,0,0,2.384,0c.134-.028.253-.076.383-.112a5.763,5.763,0,0,0,.732-.227c.146-.058.277-.138.409-.2a6.468,6.468,0,0,0,.6-.325c.134-.09.257-.193.387-.291s.263-.18.381-.285c.12.106.255.19.383.285s.251.205.389.291a6.16,6.16,0,0,0,.6.325c.14.068.271.148.409.2a5.969,5.969,0,0,0,.732.227c.13.036.251.084.383.112a6.119,6.119,0,0,0,7.215-4.78,5.925,5.925,0,0,0,.124-1.231h8.181Zm12.274,16.362a4.091,4.091,0,0,1-8.183,0V164.323a4.091,4.091,0,0,1,8.183,0Zm10.226-9.2a3.068,3.068,0,0,1-6.136,0v-22.5a3.068,3.068,0,0,1,6.136,0Zm8.183-7.158h-4.091v-8.183h4.091Z" transform="translate(-98.839 -156.142)" fill="#fff"/>
</svg>
