<svg xmlns="http://www.w3.org/2000/svg" width="34.438" height="199.776" viewBox="0 0 34.438 199.776">
  <g id="Grupo_566" data-name="Grupo 566" transform="translate(-119.32 -175.796)">
    <path id="Trazado_4166" data-name="Trazado 4166" d="M146.312,267.053a16.112,16.112,0,0,0,1.741-5.376,58.437,58.437,0,0,1,1.528-10.208c0-1.355.56-13.374.719-13.948.571-2.072-.2-11.316-.059-11.752a2.956,2.956,0,0,0,.515-2.389c-.42-4.559-5.271-7.312-7.679-10.868-1.157-1.706-6.631-5.28-5.9-7.314.208-2.2,1.524-2.037,3.035-1.993,2.067.061,5.371-1.278,4.174-3.147-1.059-1.65.25-2.541.047-2.83-.655-.921.628-.964.14-1.65-1.762-2.489,1.113-.663.914-2.275-.175-1.407-2.07-1.729-2.564-4.19-.109-.546.343-1.087.343-1.9-.095-4.96-3.413-9.359-10.891-10.28-8.414-1.036-11.477,3.852-10.865,11.159.31,3.708,3.911,7.727,5.254,11.526a6.966,6.966,0,0,1,.212,2.62,9.743,9.743,0,0,1-1.113,4.193c-.186,1.183-3.974,5.842-4.618,13.658-1.059,12.882,4.345,20.124,5.25,29.662.565,5.956-6.047,14.305-6.169,20.4a13.982,13.982,0,0,0,3.385,9.039l.578.553c-.989,11.1.564,21.631,2.972,31.974-4.9,11.1-3.824,17.592-2.228,23.5,1.027,3.8,5.69,29.274,2.28,31.8-1.544,1.143-2.2,5.837-.733,6.18,9.062,2.13,14.221.69,22.487,1.358,3.728.3,2.406-2.522.212-2.982-.179-.039-.915-.222-1.932-.529-.59-.178-1.96-.093-2.688-.352-2.9-1.031-5.774-2.979-6.573-4.974-.45-1.122-.872-4.587-1.153-10.567-.5-10.674-.726-24.853-.655-27.4.165-5.8,3.257-16.759,2.916-21.073,1.246-2.277,6.071-13.952,5.035-28.094" transform="translate(0 0)" fill="none" stroke="#228dcf" stroke-miterlimit="22.926" stroke-width="2"/>
    <path id="Trazado_4167" data-name="Trazado 4167" d="M138.5,199.593c-1.2,6.209-2.114,3.225-1.5,10.73.159,1.955.24,12.464-1.376,16.764,4.265,6.258,7.291,17.433,9.762,24.569,1.083,3.133,6.67,10.613,5.824,13.2-1.531,4.7-.536,5.9-7.051,6.178-3.281.14,3.274-3.078-.306-7.459-2.352-2.879-.469-4.436-2.172-7.394-.172-.3-1.78-2.9-2-3.176-2.986-3.761-11.16-16.292-12.7-20.523-1.853-5.093.054-8.934-1.468-12.615-1.04-2.515-1.183-10.061-1.405-10.348a9.5,9.5,0,0,1-1.778-5.544" transform="translate(1.503 17.097)" fill="none" stroke="#228dcf" stroke-miterlimit="22.926" stroke-width="2"/>
  </g>
</svg>
