<svg xmlns="http://www.w3.org/2000/svg" width="72.994" height="199.774" viewBox="0 0 72.994 199.774">
  <path id="Trazado_4165" data-name="Trazado 4165" d="M144.726,282.7a1.593,1.593,0,0,0-.753.724l-3.089,24.036c-.36,2.318-.576,6.927-1.295,9.371-1.281,4.355-3.017,6.588-1.89,10.568.9,3.169.432,6.632-.191,9.675-1.249,6.111-1.78,13.474-.178,19.569,1.142,4.342.32,5.96.8,9.673,0,.722.261,1.731.261,2.412,0,1.281.028,4.9-1.6,5.393-1.472.444-9.337.961-11.3-.606-.88-.7-.169-3.452,2.713-3.919.832-2.149,2.1-4.286,1.883-5.177-.487-2.038.908-5.393.531-10.072-.741-9.172-4.695-14.871-4.695-22.95,0-.085.773-5.791,1.135-11.062.292-4.249.186-8.259.219-8.494,1.481-10.467-3.3-26.33.244-36.36.219-.632,1.7-15.153,1.909-17.352.574-6.143-2.107-15.209-3.357-21.21-.216-1.035-2.732,4.818-2.732,7.4,0,9.959-3.818,18.047-7.364,27.217a6.806,6.806,0,0,0,.385,6.064c.811,1.324.713,9.717.458,10.075-1.975,2.775-1.66-1.785-1.9-2.687-1.507-5.7-2.647.743-1.235,3.376a3.831,3.831,0,0,0,1.629,1.458c.318.211,1.3.409,1.517.576.879.684.207,1.354-.576,1.263a10.774,10.774,0,0,1-3.282-.82c-1.328-.806-1.919-2.22-2.532-3.111-1.314-1.912-1.538-3.564-.971-6.717-.082-4.211,1.376-11.822,1.242-15.146-.343-8.537.607-18.29,4.173-26.016,2.967-6.43.618-29.211,9.56-29.31,2.983-.033,7.756-2.909,10.609-4.141,3.336-1.441,3.666-2.027,3.458-7.42-.078-.087-1.312-1.15-1.333-1.853-.176-5.784-.218-2-1.58-4.751-.8-1.6-1.444-3.741,1.108-3.372a39.843,39.843,0,0,1-.061-4.825c.955-5.549,2.307-7.383,7.994-7.383s7.228,1.834,8.182,7.383a39.83,39.83,0,0,1-.059,4.825c2.553-.369,1.9,1.768,1.108,3.372-1.363,2.751-1.406-1.034-1.58,4.751-.021.7-1.255,1.766-1.333,1.853-.209,5.393.122,5.979,3.458,7.42,2.854,1.232,7.627,4.108,10.609,4.141,8.942.1,6.593,22.881,9.56,29.31,3.567,7.726,4.516,17.479,4.173,26.016-.134,3.324,1.324,10.935,1.242,15.146.569,3.153.343,4.8-.971,6.717-.613.891-1.2,2.306-2.532,3.111a10.774,10.774,0,0,1-3.282.82c-.783.091-1.453-.579-.576-1.263.214-.167,1.2-.365,1.517-.576a3.828,3.828,0,0,0,1.627-1.458c1.413-2.633.273-9.075-1.235-3.376-.238.9.078,5.462-1.9,2.687-.256-.358-.353-8.751.458-10.075a6.806,6.806,0,0,0,.385-6.064c-3.546-9.17-7.364-17.258-7.364-27.217,0-2.584-2.516-8.438-2.73-7.4-1.251,6-3.934,15.068-3.357,21.21.205,2.2,1.688,16.721,1.907,17.352,3.548,10.03-1.237,25.893.244,36.36.033.235-.073,4.244.219,8.494.362,5.271,1.135,10.977,1.135,11.062,0,8.079-3.954,13.778-4.695,22.95-.378,4.679,1.018,8.034.531,10.072-.212.891,1.053,3.028,1.885,5.177,2.963.8,3.275,3.153,2.292,3.849-2.137,1.516-9.913.967-10.884.675-1.63-.494-1.6-4.112-1.6-5.393,0-.68.261-1.69.261-2.412.475-3.713-.346-5.332.8-9.673,1.6-6.1,1.072-13.458-.177-19.569-.621-3.043-1.091-6.506-.193-9.675,1.129-3.98-.609-6.212-1.89-10.568-.717-2.443-.934-7.053-1.291-9.371l-3.09-24.036A3.74,3.74,0,0,0,144.726,282.7Z" transform="translate(-108.227 -175.799)" fill="none" stroke="#228dcf" stroke-miterlimit="22.926" stroke-width="2"/>
</svg>
