<svg xmlns="http://www.w3.org/2000/svg" width="73.226" height="200.14" viewBox="0 0 73.226 200.14">
  <g id="Grupo_550" data-name="Grupo 550" transform="translate(0.938 1)">
    <g id="Grupo_549" data-name="Grupo 549" transform="translate(0 0)">
      <path id="Trazado_4155" data-name="Trazado 4155" d="M144.727,283.047a1.59,1.59,0,0,0-.755.727l-3.1,24.113c-.359,2.326-.576,6.951-1.3,9.4-1.285,4.371-3.028,6.611-1.9,10.605.9,3.179.431,6.652-.193,9.706-1.255,6.132-1.786,13.517-.179,19.633,1.146,4.356.321,5.979.8,9.7,0,.726.262,1.738.262,2.42,0,1.285.028,4.915-1.609,5.409-1.745.53-2.165-.5-2.18-.49-2.5,1-1.663-.385-2.481-.217-1.745.361-1.8-.576-2-.569-2.187.087-1.615-1.24-1.891-1.377-.84-.417-.408-1.531-.069-1.885.835-2.156,2.1-4.3,1.891-5.194-.49-2.045.911-5.409.533-10.1-.745-9.2-4.71-14.919-4.71-23.027,0-.085.774-5.81,1.137-11.1.293-4.264.187-8.286.22-8.522,1.486-10.5-3.314-26.414.243-36.477.22-.634,1.708-15.2,1.917-17.411.576-6.163-2.114-15.258-3.37-21.28-.215-1.038-2.739,4.837-2.739,7.427,0,9.994-3.83,18.107-7.388,27.308a6.83,6.83,0,0,0,.385,6.085c.814,1.326.717,9.748.46,10.107-1.983,2.786-1.667-1.792-1.906-2.7-1.514-5.717-2.654.747-1.24,3.389a3.847,3.847,0,0,0,1.634,1.462c.319.212,1.307.411,1.522.58.88.686.208,1.358-.578,1.266a10.749,10.749,0,0,1-3.291-.823c-1.333-.807-1.927-2.227-2.54-3.12-1.319-1.92-1.545-3.576-.976-6.739-.082-4.225,1.382-11.862,1.246-15.2-.344-8.566.609-18.35,4.186-26.1,2.977-6.451.62-29.309,9.593-29.408,3.5-.038,3.226-1.266,6.078-2.054,3.193-.882,1.717-.871,4.566-2.1,3.347-1.446,3.679-2.033,3.47-7.446-.082-.085-1.318-1.151-1.338-1.858-.175-5.8-.219-2.005-1.585-4.767-.8-1.609-1.45-3.752,1.113-3.383a39.815,39.815,0,0,1-.061-4.84c.957-5.566,2.314-7.408,8.019-7.408s7.251,1.842,8.21,7.408a40.177,40.177,0,0,1-.061,4.84c2.562-.368,1.911,1.774,1.113,3.383-1.368,2.762-1.41-1.036-1.585,4.767-.021.707-1.259,1.773-1.338,1.858-.208,5.413.123,6,3.47,7.446,2.847,1.229,1.373,1.219,4.566,2.1,2.851.788,2.58,2.016,6.078,2.054,8.972.1,6.614,22.957,9.592,29.408,3.578,7.751,4.531,17.536,4.186,26.1-.134,3.333,1.328,10.97,1.248,15.2.569,3.163.344,4.819-.976,6.739-.615.892-1.207,2.312-2.54,3.12a10.748,10.748,0,0,1-3.291.823c-.786.092-1.46-.58-.578-1.266.215-.168,1.2-.368,1.522-.58a3.845,3.845,0,0,0,1.632-1.462c1.418-2.642.274-9.105-1.238-3.389-.24.9.076,5.482-1.908,2.7-.255-.359-.352-8.781.462-10.107a6.83,6.83,0,0,0,.384-6.085c-3.557-9.2-7.387-17.313-7.387-27.308,0-2.59-2.524-8.465-2.741-7.427-1.253,6.022-3.944,15.117-3.368,21.28.207,2.207,1.694,16.777,1.915,17.411,3.559,10.064-1.241,25.976.245,36.477.033.236-.075,4.258.219,8.522.365,5.288,1.139,11.013,1.139,11.1,0,8.107-3.965,13.824-4.71,23.027-.378,4.694,1.023,8.059.533,10.1-.215.894,1.056,3.038,1.891,5.194.337.354.771,1.469-.071,1.885-.274.137.3,1.463-1.889,1.377-.194-.007-.253.931-2,.569-.818-.168.024,1.219-2.479.217-.016-.007-.436,1.019-2.182.49-1.637-.495-1.608-4.125-1.608-5.409,0-.682.262-1.694.262-2.42.477-3.725-.349-5.349.8-9.7,1.609-6.116,1.076-13.5-.177-19.633-.625-3.054-1.094-6.527-.193-9.706,1.132-3.995-.613-6.234-1.9-10.605-.719-2.45-.936-7.074-1.3-9.4l-3.1-24.113A3.736,3.736,0,0,0,144.727,283.047Z" transform="translate(-109.05 -176.799)" fill="none" stroke="#228dcf" stroke-miterlimit="22.926" stroke-width="2"/>
      <path id="Trazado_4156" data-name="Trazado 4156" d="M125.638,224.094c.052,2.047.738,6.428,2.394,6.428,1.085,0,2.288.123,3.462.123m-7.671-11.663c.068,1.611.965,5.062,3.135,5.062,1.42,0,3,.1,4.536.1m-8.531-11.663c.076,1.611,1.075,5.062,3.488,5.062,1.58,0,3.335.1,5.043.1m11.838,6.458c-.052,2.047-.738,6.428-2.394,6.428-1.085,0-2.29.123-3.463.123m7.673-11.663c-.068,1.611-.967,5.062-3.137,5.062-1.42,0-3,.1-4.536.1m8.531-11.663c-.075,1.611-1.073,5.062-3.486,5.062-1.58,0-3.335.1-5.045.1m-2.944-5.061v21.207" transform="translate(-98.81 -150.538)" fill="none" stroke="#228dcf" stroke-linecap="round" stroke-linejoin="round" stroke-width="2"/>
    </g>
  </g>
</svg>
