<svg id="Logo_Dark" data-name="Logo Dark" xmlns="http://www.w3.org/2000/svg" width="202.512" height="60" viewBox="0 0 202.512 60">
  <g id="Grupo_16" data-name="Grupo 16">
    <path id="Trazado_1357" data-name="Trazado 1357" d="M151.778,164.884l5.85,4.478v-4.478Zm8.99,23.367v4.415h5.711Zm8.888,4.415h5.771l-21.593-16.8v4.667Zm-26.723-27.782,21.612,16.944V177.1L148.57,164.884Zm16.73,6.036,6.916,5.3v7.2l14.485,11.163H158.752v-7.884l-6.935-5.36v-7.04l-14.55-11.321h22.4Z" transform="translate(-137.267 -162.972)" fill="#fff" fill-rule="evenodd"/>
    <path id="Trazado_1358" data-name="Trazado 1358" d="M315.507,164.884l-5.851,4.478v-4.478Zm-8.991,23.367v4.415H300.8Zm-8.887,4.415h-5.772l21.594-16.8v4.667Zm26.722-27.782-21.611,16.944V177.1l15.974-12.219Zm-16.729,6.036-6.918,5.3v7.2L286.22,194.577h22.313v-7.884l6.935-5.36v-7.04l14.549-11.321H307.621Z" transform="translate(-127.504 -162.972)" fill="#fff" fill-rule="evenodd"/>
    <path id="Trazado_1359" data-name="Trazado 1359" d="M199.68,197.388l34.753,23.328,34.753-23.328H251.437v1.484h13.074L234.433,218.9l-30.079-20.032h13.074v-1.484Z" transform="translate(-133.176 -160.716)" fill="#fff" fill-rule="evenodd"/>
    <path id="Trazado_1360" data-name="Trazado 1360" d="M253.812,162.973v31.6h1.922v-31.6Zm-62.739,31.6v-30h38.784c14.721,0,13.564,12.695,5.133,15.871-2.622.988-5.968.743-8.743.743h-18.1v13.383h1.921V182.885h8.287l15.917,11.692h2.322L221.1,182.885h9.806c13.805,0,18.384-19.912-1.05-19.912H163.084v1.607h26.138v30Zm78.358-30h19.791c9.289,0,14.42,2.193,14.925,8.157s-4.1,8.457-14.925,8.457H269.431Zm-1.921-1.607v31.6h1.921V182.885h19.791c12.262,0,16.55-3,16.593-9.99s-6.213-9.922-16.593-9.922Z" transform="translate(-135.575 -162.972)" fill="#fff" fill-rule="evenodd"/>
  </g>
</svg>
