<svg xmlns="http://www.w3.org/2000/svg" width="32.206" height="199.763" viewBox="0 0 32.206 199.763">
  <g id="Grupo_569" data-name="Grupo 569" transform="translate(-119.913 -175.815)">
    <path id="Trazado_4191" data-name="Trazado 4191" d="M138.8,180.286a9.517,9.517,0,0,1,1.488,6.062c-.357,2.573-.526,3.777.832,6,.038.059.44.745.444.764.017,0,2.028,1.316-.46,2.176-1.119.388.46,1.128-1.084,2.226-.16.115.809.761-.4,1.356-.762.378,2.195,3.22-2.634,3.22-2.745,0-6-3.333-7.465-5.175" transform="translate(6.367 2.583)" fill="none" stroke="#228dcf" stroke-linecap="round" stroke-linejoin="round" stroke-width="2"/>
    <path id="Trazado_4192" data-name="Trazado 4192" d="M146.317,179.1c-.5,5.97-4.129,3.909-7.84,7.516s-3.361,7.366-2.64,12.228c.813,5.478-1.426,8.445-7.558,8.8-4.115.237-5.528-1.791-7.192-4.884-.67-1.246,2.48.895,2.962-4.383.635-6.947-.428-18.99,8.734-21.108a20.8,20.8,0,0,1,10.853.621C143.921,177.965,146.664,178.354,146.317,179.1Z" transform="translate(0.048)" fill="none" stroke="#228dcf" stroke-linecap="round" stroke-linejoin="round" stroke-width="2"/>
    <path id="Trazado_4193" data-name="Trazado 4193" d="M132.47,192.182c-1.768,3.76-1.133,8.1,1.11,12.134,3.009,5.411,14.779,14.772,7.281,20.013-3.051,2.132-7.946,1.866-9.068-2.8" transform="translate(7.791 11.393)" fill="none" stroke="#228dcf" stroke-linecap="round" stroke-linejoin="round" stroke-width="2"/>
    <path id="Trazado_4194" data-name="Trazado 4194" d="M146.1,211.295c-.357,9.7,3.244,22.5-.151,33.717-.966,3.187,3.38,21.923-5.272,40.2-1.267,2.679,1.385,5.036-2.517,9.175-.419,7.552-8.621,31.693-7.894,40.911.731,3.735-.458,5.011,4.463,7.676,2.719,1.474,10.752,3.328,10.8,3.365,1.551,1.163-2.616,2.2-4.4,1.713-.489-.134-2.512.938-4.74.938-5.168,0-6.374-1-11.692-.057-3.14.557-4.125-1.549-3.657-3.425.473-1.9,2.423-3.591,2.534-5.187.171-2.425.331-4.005.475-6.379.453-7.471-.879-15.289-.923-23.106-.044-7.655,1.372-8.722,4.315-15.846,1.3-3.14.674-7.232,1.469-10.3,1.615-6.811-.867-21.258-.867-29.244" transform="translate(0 25.548)" fill="none" stroke="#228dcf" stroke-linecap="round" stroke-linejoin="round" stroke-width="2"/>
    <path id="Trazado_4195" data-name="Trazado 4195" d="M128.112,194.449c.111,3.648-.78,4.792-2.7,7.993-2.809,4.68-3.02,12.752-1.758,17.944.232.954,1.861,4.226,1.956,4.879" transform="translate(1.469 13.072)" fill="none" stroke="#228dcf" stroke-linecap="round" stroke-linejoin="round" stroke-width="2"/>
    <path id="Trazado_4196" data-name="Trazado 4196" d="M130.226,247.625c-7.166-.312-8.13-6.348-6.912-11.54,1.368-5.821,5.424-10.952,5.424-13.1" transform="translate(1.436 34.201)" fill="none" stroke="#228dcf" stroke-linecap="round" stroke-linejoin="round" stroke-width="2"/>
    <path id="Trazado_4197" data-name="Trazado 4197" d="M131.817,204.213c0,4.731-.905,10.6-.905,16.358,0,5.429,3.5,12.177,4.4,17,.536,2.874,2.781,11.288,4.961,17.888.017,1.875,1.923,4.266,2.211,7.039.512,4.969.82,4.776-2.757,9.1-.007.009-1.246,2.693-2.063.719-1.027-2.48,3.577-4.376.165-7.678-1.42-1.373-2.3-7.669-2.3-9.674-4.381-11.765-11.345-19.93-10.779-36.289.082-2.338-.75-14.2-.654-15.317" transform="translate(2.334 19.666)" fill="none" stroke="#228dcf" stroke-linecap="round" stroke-linejoin="round" stroke-width="2"/>
  </g>
</svg>
