<svg xmlns="http://www.w3.org/2000/svg" width="32.207" height="199.763" viewBox="0 0 32.207 199.763">
  <g id="Grupo_570" data-name="Grupo 570" transform="translate(-119.921 -175.816)">
    <path id="Trazado_4198" data-name="Trazado 4198" d="M125.853,180.286a9.527,9.527,0,0,0-1.488,6.062c.357,2.573.526,3.777-.832,6-.037.059-.44.745-.444.764-.016,0-2.026,1.316.46,2.176,1.119.388-.46,1.128,1.084,2.226.16.115-.809.761.4,1.356.764.378-2.195,3.22,2.633,3.22,2.745,0,6.005-3.333,7.467-5.175" transform="translate(1.019 2.583)" fill="none" stroke="#228dcf" stroke-linecap="round" stroke-linejoin="round" stroke-width="2"/>
    <path id="Trazado_4199" data-name="Trazado 4199" d="M123.669,179.1c.507,5.97,4.129,3.909,7.841,7.516s3.359,7.366,2.639,12.228c-.813,5.478,1.426,8.445,7.558,8.8,4.116.237,5.528-1.791,7.192-4.884.67-1.246-2.48.895-2.962-4.383-.634-6.947.428-18.99-8.733-21.108a20.8,20.8,0,0,0-10.853.621C126.066,177.965,123.322,178.354,123.669,179.1Z" transform="translate(2.006)" fill="none" stroke="#228dcf" stroke-linecap="round" stroke-linejoin="round" stroke-width="2"/>
    <path id="Trazado_4200" data-name="Trazado 4200" d="M131.781,192.182c1.767,3.76,1.131,8.1-1.112,12.134-3.009,5.411-14.779,14.772-7.281,20.013,3.051,2.132,7.946,1.866,9.068-2.8" transform="translate(0 11.393)" fill="none" stroke="#228dcf" stroke-linecap="round" stroke-linejoin="round" stroke-width="2"/>
    <path id="Trazado_4201" data-name="Trazado 4201" d="M124.369,211.295c.357,9.7-3.244,22.5.153,33.717.964,3.187-3.382,21.923,5.27,40.2,1.269,2.679-1.386,5.036,2.517,9.175.421,7.552,8.621,31.693,7.894,40.911-.731,3.735.458,5.011-4.461,7.676-2.721,1.474-10.752,3.328-10.8,3.365-1.549,1.163,2.618,2.2,4.4,1.713.487-.134,2.51.938,4.738.938,5.17,0,6.374-1,11.692-.057,3.14.557,4.125-1.549,3.659-3.425-.475-1.9-2.425-3.591-2.536-5.187-.171-2.425-.331-4.005-.475-6.379-.453-7.471.879-15.289.924-23.106.042-7.655-1.373-8.722-4.315-15.846-1.3-3.14-.674-7.232-1.471-10.3-1.615-6.811.867-21.258.867-29.244" transform="translate(1.571 25.548)" fill="none" stroke="#228dcf" stroke-linecap="round" stroke-linejoin="round" stroke-width="2"/>
    <path id="Trazado_4202" data-name="Trazado 4202" d="M133.3,194.449c-.111,3.648.78,4.792,2.7,7.993,2.809,4.68,3.022,12.752,1.758,17.944-.231.954-1.861,4.226-1.956,4.879" transform="translate(9.156 13.072)" fill="none" stroke="#228dcf" stroke-linecap="round" stroke-linejoin="round" stroke-width="2"/>
    <path id="Trazado_4203" data-name="Trazado 4203" d="M132.1,247.625c7.164-.312,8.13-6.348,6.91-11.54-1.366-5.821-5.424-10.952-5.424-13.1" transform="translate(8.275 34.201)" fill="none" stroke="#228dcf" stroke-linecap="round" stroke-linejoin="round" stroke-width="2"/>
    <path id="Trazado_4204" data-name="Trazado 4204" d="M135.34,204.213c0,4.731.905,10.6.905,16.358,0,5.429-3.493,12.177-4.393,17-.538,2.874-2.783,11.288-4.961,17.888-.019,1.875-1.925,4.266-2.211,7.039-.513,4.969-.822,4.776,2.755,9.1.009.009,1.246,2.693,2.063.719,1.027-2.48-3.577-4.376-.164-7.678,1.419-1.373,2.3-7.669,2.3-9.674,4.381-11.765,11.345-19.93,10.779-36.289-.08-2.338.75-14.2.654-15.317" transform="translate(2.549 19.666)" fill="none" stroke="#228dcf" stroke-linecap="round" stroke-linejoin="round" stroke-width="2"/>
  </g>
</svg>
