<svg xmlns="http://www.w3.org/2000/svg" width="55.617" height="199.735" viewBox="0 0 55.617 199.735">
  <g id="Grupo_568" data-name="Grupo 568" transform="translate(-113.132 -175.837)">
    <path id="Trazado_4185" data-name="Trazado 4185" d="M139.781,206.3a20.47,20.47,0,0,1-10.914-2.672c-5.338-3.248-.057-2.806.409-5.26,1.064-5.61-.764-12.707,2.731-17.084,2.425-3.038,4.548-5.057,9.04-4.333,4.491-.724,6.614,1.295,9.04,4.333,3.5,4.376,1.667,11.473,2.731,17.084.465,2.454,5.747,2.012.409,5.26C148.915,206.249,144.712,206.3,139.781,206.3Zm5.9-.083c.354,4.48,8.518,6.059,10.48,6.191a7.19,7.19,0,0,1,5.286,4.2c3.012,8.9-.484,22.423,1.473,28.928,2.7,8.974,1,18.416,2.367,28.337.009.062,4.477,15.728,1.35,13.257-.634-.5-.671-3.428-1.38-4.076,0,.712-2.033,10.635-3.964,8.305-.059-.071-.945,1.442-1.562-.338-.853-.3-.69.737-.938-1.189-.005-.036-.953.87-.243-2.257.218-.958.737-11.857.737-13.522,1.432-9.986-4.418-16.808-3.846-26.569-.049-9.612,1.406-17.4.723-25.325a65.139,65.139,0,0,1-3.574,19.945c-.017,5.22,1.872,9.078,3.588,13.059m2.938,23.455q-3.231,15.193-6.466,30.384v7.96c3.86,18-2.05,26.592-2.894,38.892-.542,4.281-.723,6.572-1.267,10.853q1.63,3.076,3.257,6.151c.388,1.054-.25,1.51-1.31,1.719h-7.6c-1.835-.031-2.342-1.132-1.4-3.393q.723-2.306,1.447-4.612.023-2.147.045-4.3c1.87-13.189-2.14-22.311-1.357-31.973,1.267-6.768.18-7.567.18-12.844q-.406-19.264-.813-38.53m-18.181-.31q3.234,15.193,6.466,30.384v7.96c-3.858,18,2.05,26.592,2.894,38.892.542,4.281.724,6.572,1.267,10.853q-1.627,3.076-3.257,6.151c-.387,1.054.25,1.51,1.312,1.719h7.6c1.834-.031,2.34-1.132,1.4-3.393q-.723-2.306-1.447-4.612-.021-2.147-.045-4.3c-1.868-13.189,2.142-22.311,1.359-31.973-1.267-6.768-.182-7.567-.182-12.844q.406-19.264.815-38.53M136.2,206.212c-.355,4.48-8.518,6.059-10.48,6.191a7.193,7.193,0,0,0-5.288,4.2c-3.012,8.9.485,22.423-1.473,28.928-2.7,8.974-1,18.416-2.367,28.337-.009.062-4.477,15.728-1.35,13.257.634-.5.672-3.428,1.381-4.076,0,.712,2.033,10.635,3.964,8.305.057-.071.945,1.442,1.562-.338.853-.3.688.737.938-1.189,0-.036.952.87.241-2.257-.217-.958-.735-11.857-.735-13.522-1.432-9.986,4.418-16.808,3.846-26.569.049-9.612-1.406-17.4-.724-25.325a65.087,65.087,0,0,0,3.575,19.945c.017,5.22-1.874,9.078-3.589,13.059" transform="translate(0)" fill="none" stroke="#228dcf" stroke-linecap="round" stroke-linejoin="round" stroke-width="2"/>
    <path id="Trazado_4186" data-name="Trazado 4186" d="M130.108,200.733c0,4.834.18,5.744-3.47,9.239a.3.3,0,0,0-.059.078" transform="translate(9.126 17.547)" fill="none" stroke="#228dcf" stroke-linecap="round" stroke-linejoin="round" stroke-width="2"/>
    <path id="Trazado_4187" data-name="Trazado 4187" d="M130.586,200.733c0,4.834-.182,5.744,3.468,9.239a.264.264,0,0,1,.059.078" transform="translate(12.062 17.547)" fill="none" stroke="#228dcf" stroke-linecap="round" stroke-linejoin="round" stroke-width="2"/>
    <path id="Trazado_4188" data-name="Trazado 4188" d="M127.5,226.722a7.447,7.447,0,0,1,3.527,3.257,6.328,6.328,0,0,1,3.121-3.257" transform="translate(9.802 36.601)" fill="none" stroke="#228dcf" stroke-linecap="round" stroke-linejoin="round" stroke-width="2"/>
    <path id="Trazado_4189" data-name="Trazado 4189" d="M134.817,232.884c.069.77-.128,4.853-.189,5.515-.38,4.217-9.926,4.511-12.158,1.111" transform="translate(6.114 41.119)" fill="none" stroke="#228dcf" stroke-linecap="round" stroke-linejoin="round" stroke-width="2"/>
    <path id="Trazado_4190" data-name="Trazado 4190" d="M129.617,232.884c-.071.77.128,4.853.189,5.515.38,4.217,9.926,4.511,12.156,1.111" transform="translate(11.343 41.119)" fill="none" stroke="#228dcf" stroke-linecap="round" stroke-linejoin="round" stroke-width="2"/>
  </g>
</svg>
