<svg xmlns="http://www.w3.org/2000/svg" width="54.617" height="198.734" viewBox="0 0 54.617 198.734">
  <g id="Grupo_550" data-name="Grupo 550" transform="translate(-7.894 0.115)">
    <g id="Grupo_567" data-name="Grupo 567" transform="translate(-105.749 -176.453)">
      <path id="Trazado_4168" data-name="Trazado 4168" d="M130.6,206.186c-2.35-.175-2.647.062-6.96-2.562-5.339-3.249-.055-2.806.409-5.261,1.063-5.611-.765-12.708,2.73-17.084,2.427-3.037,4.549-5.056,9.04-4.333,4.492-.723,6.615,1.3,9.042,4.333,3.495,4.378,1.667,11.473,2.732,17.084.465,2.454,5.564,1.731.408,5.261-3.205,2.2-5.2,2.673-7.236,2.685" transform="translate(5.236)" fill="none" stroke="#228dcf" stroke-linecap="round" stroke-linejoin="round" stroke-width="1"/>
      <path id="Trazado_4169" data-name="Trazado 4169" d="M132.333,191.369c.026.335.1,4.8.2,5.1,1.334,3.752,8.459,5.113,10.275,5.235a7.19,7.19,0,0,1,5.287,4.2c3.013,8.9-.484,22.425,1.474,28.927,2.7,8.974,1,18.416,2.366,28.337.009.062,4.478,15.73,1.351,13.258-.633-.5-.671-3.429-1.381-4.078,0,.713-2.033,10.636-3.963,8.306-.059-.069-.945,1.443-1.561-.338-.853-.3-.69.737-.938-1.188-.005-.036-.952.871-.241-2.257.217-.959.734-11.857.734-13.523,1.433-9.985-4.416-16.807-3.844-26.568-.049-9.612,1.811-17.853,1.129-25.777a68.123,68.123,0,0,1-3.981,20.4c-.017,5.219,1.871,9.076,3.589,13.059" transform="translate(13.359 10.701)" fill="none" stroke="#228dcf" stroke-linecap="round" stroke-linejoin="round" stroke-width="1"/>
      <path id="Trazado_4170" data-name="Trazado 4170" d="M147.779,235.5q-3.236,15.191-6.468,30.384v7.959c3.859,18-2.05,26.591-2.895,38.891-.543,4.281-.723,6.574-1.266,10.854q1.629,3.075,3.256,6.15c.387,1.053-.25,1.509-1.311,1.719h-7.6c-1.835-.031-2.34-1.131-1.4-3.393q.723-2.305,1.448-4.612.023-2.149.045-4.3c1.87-13.19-2.14-22.31-1.356-31.974,1.266-6.768.18-7.567.18-12.844q-.408-19.265-.813-38.529" transform="translate(11.351 43.113)" fill="none" stroke="#228dcf" stroke-linecap="round" stroke-linejoin="round" stroke-width="1"/>
      <path id="Trazado_4171" data-name="Trazado 4171" d="M119.117,236.394q3.234,15.191,6.466,30.384v7.959c-3.859,18,2.05,26.591,2.895,38.891.543,4.281.723,6.574,1.266,10.854q-1.629,3.075-3.256,6.15c-.387,1.053.25,1.509,1.311,1.719h7.6c1.835-.031,2.341-1.131,1.4-3.393q-.726-2.305-1.448-4.612-.023-2.149-.045-4.3c-1.87-13.19,2.14-22.31,1.358-31.974-1.266-6.768-.182-7.567-.182-12.844.272-12.844.543-28.1.815-40.949" transform="translate(3.653 42.22)" fill="none" stroke="#228dcf" stroke-linecap="round" stroke-linejoin="round" stroke-width="1"/>
      <path id="Trazado_4172" data-name="Trazado 4172" d="M136.12,191.385c-.028.366-.019,4.829-.146,5.157-1.41,3.687-8.442,5.028-10.244,5.15a7.193,7.193,0,0,0-5.287,4.2c-3.013,8.9.484,22.425-1.473,28.927-2.7,8.974-1,18.416-2.368,28.337-.009.062-4.478,15.73-1.349,13.258.631-.5.669-3.429,1.379-4.078,0,.713,2.033,10.636,3.965,8.306.057-.069.944,1.443,1.561-.338.852-.3.689.737.937-1.188.005-.036.952.871.243-2.257-.219-.959-.735-11.857-.735-13.523-1.433-9.985,4.416-16.807,3.845-26.568.049-9.612-1.993-17.808-1.313-25.731a67.841,67.841,0,0,0,4.164,20.352c.017,5.219-1.873,9.076-3.589,13.059" transform="translate(0 10.713)" fill="none" stroke="#228dcf" stroke-linecap="round" stroke-linejoin="round" stroke-width="1"/>
      <path id="Trazado_4173" data-name="Trazado 4173" d="M123.957,197.385c1-.047,6,.087,6.468.361" transform="translate(7.208 15.112)" fill="none" stroke="#228dcf" stroke-linecap="round" stroke-linejoin="round" stroke-width="1"/>
      <path id="Trazado_4174" data-name="Trazado 4174" d="M127.673,193.339c.052,1.14.671,4.629,1.348,5.542.033.047.009.068.009-.092" transform="translate(9.937 12.148)" fill="none" stroke="#228dcf" stroke-linecap="round" stroke-linejoin="round" stroke-width="1"/>
      <path id="Trazado_4175" data-name="Trazado 4175" d="M137.866,197.385c-1-.047-6,.087-6.466.361" transform="translate(12.674 15.112)" fill="none" stroke="#228dcf" stroke-linecap="round" stroke-linejoin="round" stroke-width="1"/>
      <path id="Trazado_4176" data-name="Trazado 4176" d="M131.991,193.339c-.052,1.14-.671,4.629-1.348,5.542-.033.047-.009.068-.009-.092" transform="translate(12.106 12.148)" fill="none" stroke="#228dcf" stroke-linecap="round" stroke-linejoin="round" stroke-width="1"/>
      <path id="Trazado_4177" data-name="Trazado 4177" d="M121.176,208.431c1.481,5.854,11.333,5.085,11.822.257" transform="translate(5.165 23.232)" fill="none" stroke="#228dcf" stroke-linecap="round" stroke-linejoin="round" stroke-width="1"/>
      <path id="Trazado_4178" data-name="Trazado 4178" d="M123.7,208.048c.156.928,1.2.807,1.251.042" transform="translate(7.02 22.951)" fill="none" stroke="#228dcf" stroke-linecap="round" stroke-linejoin="round" stroke-width="1"/>
      <path id="Trazado_4179" data-name="Trazado 4179" d="M135.2,208.048c.156.928,1.2.807,1.249.042" transform="translate(15.466 22.951)" fill="none" stroke="#228dcf" stroke-linecap="round" stroke-linejoin="round" stroke-width="1"/>
      <path id="Trazado_4180" data-name="Trazado 4180" d="M129.281,224.521c.156.928,1.2.8,1.249.04" transform="translate(11.118 35.049)" fill="none" stroke="#228dcf" stroke-linecap="round" stroke-linejoin="round" stroke-width="1"/>
      <path id="Trazado_4181" data-name="Trazado 4181" d="M142.975,208.431c-1.481,5.854-11.333,5.085-11.822.257" transform="translate(12.493 23.232)" fill="none" stroke="#228dcf" stroke-linecap="round" stroke-linejoin="round" stroke-width="1"/>
      <path id="Trazado_4182" data-name="Trazado 4182" d="M122.546,199.085c3.592-1.859,2.971-9.09,4.577-13.308,1.348-3.538,3.372-6.006,7.633-5.1,4.262-.909,6.286,1.559,7.633,5.1,1.606,4.218.985,11.449,4.577,13.308" transform="translate(6.171 2.711)" fill="none" stroke="#228dcf" stroke-linecap="round" stroke-linejoin="round" stroke-width="1"/>
      <path id="Trazado_4183" data-name="Trazado 4183" d="M125.229,183.571c-.1,5.446-.286,8.126.767,10.235.968,1.939,3.027,5.542,6.834,5.843,3.805-.3,5.866-3.9,6.834-5.843,1.051-2.109.924-4.78.827-10.228" transform="translate(8.084 4.974)" fill="none" stroke="#228dcf" stroke-linecap="round" stroke-linejoin="round" stroke-width="1"/>
      <path id="Trazado_4184" data-name="Trazado 4184" d="M137.048,231.584c-1.734-.012-3.448,4.745-5.181,4.735-1.78-.012-3.578-4.792-5.358-4.8" transform="translate(9.083 40.187)" fill="none" stroke="#228dcf" stroke-linecap="round" stroke-linejoin="round" stroke-width="1"/>
    </g>
  </g>
</svg>
