<svg xmlns="http://www.w3.org/2000/svg" width="96" height="96" viewBox="0 0 96 96">
  <path id="Trazado_4209" data-name="Trazado 4209" d="M186.018,234.158a42.37,42.37,0,1,1-9.025-66.813l-3.173,3.173a2.812,2.812,0,0,0-.822,1.918,2.85,2.85,0,0,0,.009.307l.379,4.487a32.105,32.105,0,1,0,9.631,9.633l4.489.379c.078,0,.158.009.236.009l.04,0c.038,0,.073,0,.111,0,.06,0,.122-.007.183-.016l.111-.016c.06-.011.118-.02.176-.033l.111-.029c.058-.016.114-.033.172-.051.036-.013.071-.025.107-.04.056-.02.109-.045.163-.069.036-.016.069-.031.1-.049.053-.027.107-.058.158-.089l.094-.056c.056-.036.109-.076.163-.116.025-.02.051-.038.076-.056a2.612,2.612,0,0,0,.218-.2l3.173-3.173a42.394,42.394,0,0,1-6.884,50.9m-21.4-42.5a15.218,15.218,0,1,0,3.977,3.979l8.032-8.032a26.488,26.488,0,1,1-3.979-3.977Zm1,12.539a9.567,9.567,0,1,1-5.091-8.45l-6.461,6.461a2.812,2.812,0,1,0,3.977,3.977l6.461-6.459A9.484,9.484,0,0,1,165.617,204.2Zm20.252-32.38a2.81,2.81,0,0,0,2.564,2.567l4.97.419-6.726,6.728-7.336-.619-.619-7.336,6.726-6.726Zm11.14,7.336,4.656-4.656a2.811,2.811,0,0,0-1.753-4.79l-8.638-.729-.729-8.638a2.813,2.813,0,0,0-4.792-1.753l-4.656,4.656a47.985,47.985,0,1,0,15.912,15.909Z" transform="translate(-108.055 -156.195)" fill="#fff"/>
</svg>
