<svg xmlns="http://www.w3.org/2000/svg" width="90.896" height="90.896" viewBox="0 0 90.896 90.896">
  <g id="Grupo_575" data-name="Grupo 575" transform="translate(-106.458 -151.969)">
    <path id="Trazado_4219" data-name="Trazado 4219" d="M176.612,195.607a41,41,0,0,1-26.635,9.924c-9.706,0-18.7-3.341-26.719-9.93a50.252,50.252,0,0,1-8.343-8.722,50.181,50.181,0,0,1,8.343-8.722c8.023-6.589,17.011-9.929,26.719-9.929a41,41,0,0,1,26.635,9.924,49.614,49.614,0,0,1,8.28,8.728,49.62,49.62,0,0,1-8.28,8.728m13.781-7.337.852-1.39-.852-1.392a51.165,51.165,0,0,0-10.232-11.312,46.151,46.151,0,0,0-60.439-.006,51.675,51.675,0,0,0-10.311,11.308l-.87,1.4.87,1.4a51.66,51.66,0,0,0,10.311,11.3,46.142,46.142,0,0,0,60.439,0A51.1,51.1,0,0,0,190.393,188.27Z" transform="translate(2.008 10.538)" fill="#fff"/>
    <path id="Trazado_4220" data-name="Trazado 4220" d="M137.454,193.641a10.676,10.676,0,1,1,10.674-10.676,10.688,10.688,0,0,1-10.674,10.676m0-26.678a16,16,0,1,0,16,16A16.02,16.02,0,0,0,137.454,166.963Z" transform="translate(14.453 14.453)" fill="#fff"/>
    <path id="Trazado_4221" data-name="Trazado 4221" d="M111.784,157.3H122.9v-5.326H106.458v16.244h5.326Z" fill="#fff"/>
    <path id="Trazado_4222" data-name="Trazado 4222" d="M144.368,151.969V157.3h11.118v10.918h5.326V151.969Z" transform="translate(36.542)" fill="#fff"/>
    <path id="Trazado_4223" data-name="Trazado 4223" d="M111.784,189.981h-5.326v16.245H122.9V200.9H111.784Z" transform="translate(0 36.64)" fill="#fff"/>
    <path id="Trazado_4224" data-name="Trazado 4224" d="M155.487,200.9H144.368v5.326h16.444V189.981h-5.326Z" transform="translate(36.542 36.64)" fill="#fff"/>
  </g>
</svg>
