<svg xmlns="http://www.w3.org/2000/svg" width="89.998" height="90" viewBox="0 0 89.998 90">
  <g id="Grupo_581" data-name="Grupo 581" transform="translate(-226.216 -74.45)">
    <path id="Trazado_4230" data-name="Trazado 4230" d="M313.312,154.287a7.266,7.266,0,0,1-7.259,7.259H236.377a7.268,7.268,0,0,1-7.259-7.259V93.32a7.267,7.267,0,0,1,7.259-7.257h16.505a20.063,20.063,0,0,0-1.132,2.9H237.827a5.812,5.812,0,0,0-5.806,5.808v58.063a5.812,5.812,0,0,0,5.806,5.806H304.6a5.812,5.812,0,0,0,5.806-5.806V94.773a5.812,5.812,0,0,0-5.806-5.808H290.68a20.289,20.289,0,0,0-1.13-2.9h16.5a7.266,7.266,0,0,1,7.259,7.257ZM291.3,91.869h13.3a2.908,2.908,0,0,1,2.9,2.9v58.063a2.908,2.908,0,0,1-2.9,2.9H237.827a2.906,2.906,0,0,1-2.9-2.9V94.773a2.906,2.906,0,0,1,2.9-2.9h13.3a20.324,20.324,0,1,0,40.18,0Zm-20.09-14.515A17.419,17.419,0,1,1,253.8,94.773,17.437,17.437,0,0,1,271.215,77.354Zm34.838,5.806H287.87a20.28,20.28,0,0,0-33.311,0H236.377A10.173,10.173,0,0,0,226.216,93.32v60.967a10.174,10.174,0,0,0,10.161,10.163h69.677a10.173,10.173,0,0,0,10.161-10.163V93.32A10.173,10.173,0,0,0,306.053,83.16Z" transform="translate(0 0)" fill="#fff"/>
    <path id="Trazado_4231" data-name="Trazado 4231" d="M250.85,85.614a2.9,2.9,0,1,1-2.9,2.9,2.908,2.908,0,0,1,2.9-2.9m0,8.71a5.812,5.812,0,0,0,5.806-5.806,5.719,5.719,0,0,0-.822-2.931l3.3-3.3-2.053-2.053-3.3,3.3a5.721,5.721,0,0,0-2.931-.824,5.807,5.807,0,0,0,0,11.614Z" transform="translate(20.365 6.255)" fill="#fff"/>
    <path id="Trazado_4232" data-name="Trazado 4232" d="M255.375,80.143a11.612,11.612,0,1,1-11.611,11.613,11.627,11.627,0,0,1,11.611-11.613m0,26.129A14.516,14.516,0,1,0,240.86,91.756,14.532,14.532,0,0,0,255.375,106.272Z" transform="translate(15.84 3.017)" fill="#fff"/>
    <path id="Trazado_4233" data-name="Trazado 4233" d="M249.956,107.629l-.26.3a26.158,26.158,0,0,0-6.289,17v1.6a3.787,3.787,0,0,1-7.567.235L234.7,108.547v-5.558a6.3,6.3,0,0,1,4.775-6.116l4.813-1.2a6.3,6.3,0,0,1,7.831,6.116,8.978,8.978,0,0,1-2.161,5.843m-4.145-15.048a9.272,9.272,0,0,0-2.229.273l-4.813,1.205a9.192,9.192,0,0,0-6.976,8.93l0,5.648,1.143,18.314a6.692,6.692,0,0,0,13.37-.416v-1.6a23.243,23.243,0,0,1,5.591-15.113l.258-.3a11.892,11.892,0,0,0,2.86-7.733A9.218,9.218,0,0,0,245.812,92.581Z" transform="translate(6.033 19.611)" fill="#fff"/>
    <path id="Trazado_4234" data-name="Trazado 4234" d="M261.923,95.483a6.218,6.218,0,0,1,1.528.189l4.813,1.2a6.291,6.291,0,0,1,4.773,6.114l0,5.466L271.9,126.77a3.788,3.788,0,0,1-7.569-.235v-1.6a26.151,26.151,0,0,0-6.291-17l-.258-.3a8.978,8.978,0,0,1-2.161-5.843,6.311,6.311,0,0,1,6.305-6.3m-9.209,6.3a11.894,11.894,0,0,0,2.862,7.733l.256.3a23.244,23.244,0,0,1,5.591,15.115v1.6a6.692,6.692,0,0,0,13.37.416l1.147-18.4v-5.558a9.192,9.192,0,0,0-6.976-8.93l-4.811-1.205a9.215,9.215,0,0,0-11.441,8.932Z" transform="translate(28.661 19.611)" fill="#fff"/>
  </g>
</svg>
