<svg xmlns="http://www.w3.org/2000/svg" width="42.129" height="95.593" viewBox="0 0 42.129 95.593">
  <g id="Grupo_574" data-name="Grupo 574" transform="translate(-116.248 -144.815)">
    <path id="Trazado_4217" data-name="Trazado 4217" d="M152.092,160.3h-.358v-.347a5.007,5.007,0,0,0-.1-1h2.193a4.551,4.551,0,1,0,0-9.1H143.521v-2.191h.259a1.42,1.42,0,0,0,0-2.84H130.36a1.42,1.42,0,1,0,0,2.84h.26v2.191h-.355a1.42,1.42,0,1,0,0,2.84h.355v2.191h-3.141a5.077,5.077,0,0,0-5.072,5.072v.347h-.36a5.806,5.806,0,0,0-5.8,5.8V180a1.41,1.41,0,0,0,.417,1,3.645,3.645,0,0,1,0,5.145,1.415,1.415,0,0,0-.417,1v33.861a1.42,1.42,0,0,0,2.84,0V188.574h23.206a1.419,1.419,0,1,0,0-2.838H120.2a6.524,6.524,0,0,0,0-4.313h33.743a6.524,6.524,0,0,0,0,4.313h-6.915a1.419,1.419,0,1,0,0,2.838h8.025v46.6a2.4,2.4,0,0,1-2.393,2.393H121.481a2.4,2.4,0,0,1-2.393-2.393v-9.049a1.42,1.42,0,1,0-2.84,0v9.049a5.239,5.239,0,0,0,5.233,5.233h31.177a5.24,5.24,0,0,0,5.235-5.233v-48.02a1.415,1.415,0,0,0-.417-1,3.642,3.642,0,0,1,0-5.145,1.41,1.41,0,0,0,.417-1V166.1a5.808,5.808,0,0,0-5.8-5.8m1.734-7.611a1.712,1.712,0,0,1,0,3.423h-3.857a5.04,5.04,0,0,0-3.308-1.232h-3.139v-2.191Zm-20.367-5.031h7.222v2.191h-7.222Zm0,5.031h7.222v2.191h-7.222Zm-8.212,7.263a2.236,2.236,0,0,1,2.232-2.234H146.66a2.236,2.236,0,0,1,2.234,2.234v.347H125.247Zm-6.159,6.148a2.964,2.964,0,0,1,2.96-2.961h30.045a2.963,2.963,0,0,1,2.96,2.961v12.485H119.088Z" fill="#fff"/>
    <path id="Trazado_4218" data-name="Trazado 4218" d="M137.776,197.093a7.76,7.76,0,0,0,0-10.976l-4.484-4.484a1.419,1.419,0,0,0-2.008,0l-4.484,4.484a7.761,7.761,0,1,0,10.976,10.976m-8.969-2.008a4.927,4.927,0,0,1,0-6.959l3.48-3.48,3.48,3.48a4.921,4.921,0,1,1-6.961,6.959Z" transform="translate(4.782 21.027)" fill="#fff"/>
  </g>
</svg>
